<svg width="348" height="65" viewBox="0 0 348 65" fill="none" xmlns="http://www.w3.org/2000/svg">
<path d="M85.697 34.2245H78.6665C78.6167 33.6428 78.4837 33.1151 78.2676 32.6414C78.0599 32.1677 77.769 31.7605 77.395 31.4198C77.0294 31.0708 76.5848 30.8049 76.0613 30.622C75.5377 30.4309 74.9435 30.3353 74.2787 30.3353C73.1153 30.3353 72.1305 30.6179 71.3244 31.183C70.5266 31.7481 69.92 32.5583 69.5045 33.6137C69.0973 34.6691 68.8937 35.9364 68.8937 37.4157C68.8937 38.978 69.1014 40.2868 69.5169 41.3422C69.9408 42.3893 70.5516 43.1788 71.3494 43.7107C72.1471 44.2342 73.107 44.496 74.2288 44.496C74.8687 44.496 75.4421 44.417 75.9491 44.2591C76.456 44.0929 76.8964 43.8561 77.2704 43.5486C77.6444 43.2411 77.9477 42.8713 78.1804 42.4392C78.4214 41.9987 78.5834 41.5043 78.6665 40.9558L85.697 41.0057C85.6139 42.086 85.3105 43.1871 84.787 44.309C84.2635 45.4226 83.5197 46.453 82.5557 47.4004C81.6 48.3395 80.4158 49.0957 79.0031 49.6691C77.5903 50.2425 75.9491 50.5292 74.0793 50.5292C71.7358 50.5292 69.6333 50.0264 67.7718 49.0209C65.9186 48.0154 64.4519 46.5361 63.3715 44.5832C62.2995 42.6303 61.7635 40.2411 61.7635 37.4157C61.7635 34.5736 62.312 32.1802 63.4089 30.2356C64.5059 28.2827 65.9851 26.8076 67.8466 25.8104C69.7081 24.8049 71.7856 24.3021 74.0793 24.3021C75.6915 24.3021 77.1748 24.5223 78.5294 24.9628C79.884 25.4032 81.0723 26.0472 82.0945 26.8949C83.1166 27.7342 83.9394 28.7689 84.5626 29.9988C85.1859 31.2287 85.564 32.6373 85.697 34.2245ZM102.603 32.629C102.537 31.7979 102.225 31.1497 101.668 30.6844C101.12 30.219 100.285 29.9863 99.1627 29.9863C98.448 29.9863 97.8621 30.0736 97.4051 30.2481C96.9563 30.4143 96.6239 30.6428 96.4078 30.9337C96.1918 31.2245 96.0796 31.5569 96.0713 31.9309C96.0546 32.2384 96.1087 32.5168 96.2333 32.7661C96.3663 33.0071 96.574 33.2273 96.8566 33.4267C97.1391 33.6179 97.5006 33.7924 97.9411 33.9503C98.3815 34.1082 98.9051 34.2495 99.5117 34.3741L101.606 34.8229C103.019 35.122 104.228 35.5168 105.233 36.0071C106.239 36.4974 107.062 37.0749 107.701 37.7398C108.341 38.3963 108.811 39.1359 109.11 39.9586C109.418 40.7813 109.575 41.6788 109.584 42.6511C109.575 44.3298 109.156 45.7508 108.325 46.9143C107.494 48.0777 106.305 48.9627 104.76 49.5694C103.222 50.176 101.373 50.4793 99.2125 50.4793C96.9937 50.4793 95.0574 50.1511 93.4037 49.4946C91.7583 48.8381 90.4785 47.8284 89.5644 46.4655C88.6585 45.0943 88.2015 43.3409 88.1932 41.2051H94.7749C94.8164 41.9863 95.0117 42.6428 95.3607 43.1746C95.7098 43.7065 96.2001 44.1095 96.8317 44.3838C97.4715 44.658 98.2319 44.7951 99.1128 44.7951C99.8524 44.7951 100.472 44.7037 100.97 44.5209C101.469 44.3381 101.847 44.0846 102.104 43.7605C102.362 43.4364 102.495 43.0666 102.503 42.6511C102.495 42.2605 102.366 41.9198 102.117 41.6289C101.876 41.3298 101.477 41.0638 100.92 40.8312C100.364 40.5902 99.6114 40.3658 98.6641 40.158L96.1211 39.6096C93.8607 39.1193 92.0782 38.3007 90.7735 37.1539C89.4771 35.9988 88.8331 34.424 88.8414 32.4295C88.8331 30.809 89.2652 29.3921 90.1378 28.1788C91.0186 26.9572 92.2361 26.0057 93.7901 25.3243C95.3524 24.6428 97.1433 24.3021 99.1627 24.3021C101.224 24.3021 103.006 24.647 104.51 25.3367C106.014 26.0265 107.174 26.9988 107.988 28.2536C108.811 29.5002 109.226 30.9586 109.235 32.629H102.603ZM127.328 24.6511H134.259V41.0057C134.259 42.9503 133.794 44.6331 132.863 46.0541C131.94 47.4669 130.652 48.5597 128.999 49.3325C127.345 50.0971 125.425 50.4793 123.24 50.4793C121.037 50.4793 119.109 50.0971 117.456 49.3325C115.802 48.5597 114.514 47.4669 113.591 46.0541C112.677 44.6331 112.22 42.9503 112.22 41.0057V24.6511H119.151V40.4073C119.151 41.1968 119.325 41.9032 119.674 42.5264C120.023 43.1414 120.505 43.6234 121.12 43.9724C121.744 44.3215 122.45 44.496 123.24 44.496C124.037 44.496 124.744 44.3215 125.359 43.9724C125.974 43.6234 126.456 43.1414 126.805 42.5264C127.154 41.9032 127.328 41.1968 127.328 40.4073V24.6511ZM150.218 34.8229V40.0084H138.251V34.8229H150.218Z" fill="#242331"/>
<path d="M28.9432 46.7573H36.9352V40.0972H43.5953V32.1051H36.9352V25.4451H28.9432V32.1051H22.2831V40.0972H28.9432V46.7573ZM19.6191 56.0813C18.1539 56.0813 16.8991 55.5592 15.8548 54.5149C14.8105 53.4706 14.2892 52.2167 14.291 50.7533V21.449C14.291 19.9838 14.8132 18.7291 15.8575 17.6848C16.9018 16.6405 18.1556 16.1192 19.6191 16.121H46.2593C47.7245 16.121 48.9793 16.6431 50.0236 17.6874C51.0679 18.7317 51.5891 19.9856 51.5874 21.449V50.7533C51.5874 52.2185 51.0652 53.4733 50.0209 54.5176C48.9766 55.5619 47.7227 56.0831 46.2593 56.0813H19.6191ZM16.955 13.457V8.12891H48.9233V13.457H16.955Z" fill="#242331"/>
<path d="M177.453 31.082H171.993C171.893 30.3756 171.69 29.7482 171.382 29.1997C171.075 28.6429 170.68 28.1692 170.198 27.7786C169.716 27.3881 169.159 27.0889 168.528 26.8811C167.904 26.6734 167.227 26.5695 166.496 26.5695C165.174 26.5695 164.023 26.8977 163.043 27.5543C162.062 28.2025 161.302 29.1498 160.762 30.3964C160.221 31.6346 159.951 33.1387 159.951 34.9088C159.951 36.7288 160.221 38.2578 160.762 39.4961C161.31 40.7343 162.075 41.6692 163.055 42.3008C164.036 42.9323 165.17 43.2481 166.458 43.2481C167.181 43.2481 167.85 43.1526 168.465 42.9614C169.088 42.7703 169.641 42.4919 170.123 42.1263C170.605 41.7523 171.004 41.2994 171.32 40.7675C171.644 40.2357 171.868 39.629 171.993 38.9476L177.453 38.9725C177.311 40.1443 176.958 41.2745 176.393 42.3631C175.836 43.4434 175.084 44.4116 174.137 45.2675C173.198 46.1152 172.076 46.7883 170.771 47.2869C169.475 47.7772 168.008 48.0224 166.371 48.0224C164.094 48.0224 162.058 47.5071 160.263 46.4767C158.476 45.4462 157.064 43.9545 156.025 42.0016C154.994 40.0487 154.479 37.6844 154.479 34.9088C154.479 32.1249 155.003 29.7565 156.05 27.8036C157.097 25.8507 158.518 24.3631 160.313 23.341C162.108 22.3105 164.127 21.7953 166.371 21.7953C167.85 21.7953 169.221 22.003 170.485 22.4185C171.756 22.834 172.882 23.4407 173.863 24.2385C174.843 25.0279 175.641 25.9961 176.256 27.1429C176.879 28.2897 177.278 29.6027 177.453 31.082ZM186.534 22.1443V47.6733H181.224V22.1443H186.534ZM190.788 47.6733V28.5266H196.098V47.6733H190.788ZM193.455 26.0584C192.666 26.0584 191.988 25.7966 191.423 25.2731C190.867 24.7412 190.588 24.1055 190.588 23.3659C190.588 22.6346 190.867 22.0072 191.423 21.4836C191.988 20.9518 192.666 20.6858 193.455 20.6858C194.245 20.6858 194.918 20.9518 195.475 21.4836C196.04 22.0072 196.322 22.6346 196.322 23.3659C196.322 24.1055 196.04 24.7412 195.475 25.2731C194.918 25.7966 194.245 26.0584 193.455 26.0584ZM205.662 36.6041V47.6733H200.352V28.5266H205.413V31.9047H205.637C206.061 30.7911 206.771 29.9102 207.768 29.262C208.766 28.6055 209.975 28.2772 211.396 28.2772C212.726 28.2772 213.885 28.5681 214.874 29.1498C215.863 29.7315 216.631 30.5626 217.18 31.6429C217.728 32.7149 218.003 33.9947 218.003 35.4822V47.6733H212.692V36.4296C212.701 35.2578 212.401 34.3437 211.795 33.6872C211.188 33.0224 210.353 32.69 209.289 32.69C208.575 32.69 207.943 32.8437 207.395 33.1512C206.854 33.4587 206.431 33.9074 206.123 34.4975C205.824 35.0792 205.67 35.7814 205.662 36.6041ZM222.188 47.6733V28.5266H227.498V47.6733H222.188ZM224.855 26.0584C224.066 26.0584 223.389 25.7966 222.824 25.2731C222.267 24.7412 221.988 24.1055 221.988 23.3659C221.988 22.6346 222.267 22.0072 222.824 21.4836C223.389 20.9518 224.066 20.6858 224.855 20.6858C225.645 20.6858 226.318 20.9518 226.875 21.4836C227.44 22.0072 227.722 22.6346 227.722 23.3659C227.722 24.1055 227.44 24.7412 226.875 25.2731C226.318 25.7966 225.645 26.0584 224.855 26.0584ZM240.403 48.0473C238.442 48.0473 236.755 47.6318 235.342 46.8008C233.937 45.9614 232.857 44.798 232.101 43.3105C231.353 41.8229 230.979 40.111 230.979 38.1747C230.979 36.2135 231.357 34.4933 232.113 33.0141C232.878 31.5265 233.962 30.3673 235.367 29.5362C236.771 28.6969 238.442 28.2772 240.378 28.2772C242.048 28.2772 243.511 28.5806 244.766 29.1872C246.021 29.7939 247.014 30.6457 247.745 31.7426C248.476 32.8396 248.879 34.1277 248.954 35.6069H243.943C243.802 34.6512 243.428 33.8825 242.821 33.3008C242.223 32.7108 241.437 32.4157 240.465 32.4157C239.642 32.4157 238.924 32.6401 238.309 33.0889C237.702 33.5293 237.228 34.1734 236.888 35.021C236.547 35.8686 236.376 36.895 236.376 38.0999C236.376 39.3216 236.543 40.3603 236.875 41.2163C237.216 42.0722 237.694 42.7246 238.309 43.1733C238.924 43.6221 239.642 43.8465 240.465 43.8465C241.072 43.8465 241.616 43.7218 242.098 43.4725C242.588 43.2232 242.991 42.8617 243.307 42.388C243.631 41.906 243.843 41.3285 243.943 40.6553H248.954C248.871 42.1179 248.472 43.406 247.757 44.5196C247.051 45.6249 246.075 46.4891 244.828 47.1124C243.581 47.7357 242.106 48.0473 240.403 48.0473ZM256.804 22.1443V24.8368C256.804 25.6014 256.654 26.3825 256.355 27.1803C256.064 27.9698 255.674 28.7177 255.184 29.4241C254.693 30.1221 254.157 30.7163 253.576 31.2066L251.232 29.823C251.648 29.1664 252.013 28.4393 252.329 27.6415C252.653 26.8437 252.815 25.9171 252.815 24.8617V22.1443H256.804ZM273.872 33.9864L269.011 34.2855C268.928 33.87 268.749 33.4961 268.475 33.1637C268.201 32.8229 267.839 32.5529 267.39 32.3534C266.95 32.1457 266.422 32.0418 265.807 32.0418C264.984 32.0418 264.291 32.2163 263.725 32.5653C263.16 32.906 262.878 33.3631 262.878 33.9365C262.878 34.3936 263.061 34.78 263.426 35.0958C263.792 35.4116 264.419 35.665 265.309 35.8562L268.774 36.5542C270.635 36.9365 272.023 37.5515 272.937 38.3991C273.851 39.2468 274.309 40.3603 274.309 41.7398C274.309 42.9947 273.939 44.0958 273.199 45.0431C272.468 45.9905 271.462 46.7301 270.183 47.262C268.911 47.7855 267.444 48.0473 265.782 48.0473C263.248 48.0473 261.228 47.5196 259.724 46.4642C258.228 45.4005 257.352 43.9545 257.094 42.1263L262.317 41.852C262.475 42.6249 262.857 43.2149 263.464 43.6221C264.07 44.021 264.847 44.2204 265.795 44.2204C266.725 44.2204 267.473 44.0418 268.038 43.6844C268.612 43.3188 268.903 42.8492 268.911 42.2758C268.903 41.7938 268.699 41.3991 268.3 41.0916C267.901 40.7758 267.286 40.5348 266.455 40.3686L263.14 39.708C261.27 39.334 259.878 38.6858 258.964 37.7634C258.058 36.8409 257.605 35.665 257.605 34.2357C257.605 33.0058 257.937 31.9462 258.602 31.057C259.275 30.1678 260.219 29.4822 261.432 29.0002C262.653 28.5182 264.083 28.2772 265.72 28.2772C268.138 28.2772 270.041 28.7883 271.429 29.8105C272.825 30.8326 273.64 32.2246 273.872 33.9864ZM291.274 22.1443V47.6733H285.876V22.1443H291.274ZM295.715 22.1443H302.371L309.402 39.2966H309.701L316.731 22.1443H323.388V47.6733H318.152V31.057H317.94L311.334 47.5487H307.769L301.162 30.9947H300.95V47.6733H295.715V22.1443ZM341.684 29.4864C341.584 28.4808 341.156 27.6997 340.4 27.1429C339.644 26.5861 338.617 26.3077 337.321 26.3077C336.44 26.3077 335.696 26.4324 335.09 26.6817C334.483 26.9227 334.018 27.2592 333.694 27.6914C333.378 28.1235 333.22 28.6138 333.22 29.1623C333.203 29.6194 333.299 30.0182 333.507 30.359C333.723 30.6997 334.018 30.9947 334.392 31.244C334.766 31.485 335.198 31.6969 335.688 31.8797C336.178 32.0542 336.702 32.2038 337.259 32.3285L339.552 32.877C340.666 33.1263 341.688 33.4587 342.619 33.8742C343.549 34.2897 344.356 34.8008 345.037 35.4074C345.718 36.0141 346.246 36.7288 346.62 37.5515C347.002 38.3742 347.198 39.3174 347.206 40.3811C347.198 41.9434 346.799 43.298 346.009 44.4448C345.228 45.5833 344.098 46.4684 342.619 47.0999C341.148 47.7232 339.374 48.0348 337.296 48.0348C335.235 48.0348 333.44 47.719 331.911 47.0875C330.39 46.4559 329.202 45.521 328.346 44.2828C327.498 43.0362 327.054 41.4947 327.012 39.6581H332.235C332.293 40.5141 332.538 41.2288 332.971 41.8022C333.411 42.3673 333.997 42.7952 334.728 43.0861C335.468 43.3686 336.303 43.5099 337.234 43.5099C338.148 43.5099 338.941 43.3769 339.615 43.111C340.296 42.8451 340.824 42.4753 341.198 42.0016C341.572 41.5279 341.759 40.9836 341.759 40.3686C341.759 39.7952 341.588 39.3132 341.248 38.9227C340.915 38.5321 340.425 38.1997 339.777 37.9254C339.137 37.6512 338.351 37.4019 337.421 37.1775L334.641 36.4795C332.489 35.9559 330.789 35.1373 329.543 34.0238C328.296 32.9102 327.677 31.4102 327.685 29.5238C327.677 27.9781 328.088 26.6277 328.919 25.4725C329.759 24.3174 330.91 23.4158 332.372 22.7676C333.835 22.1194 335.497 21.7953 337.358 21.7953C339.253 21.7953 340.907 22.1194 342.32 22.7676C343.741 23.4158 344.846 24.3174 345.635 25.4725C346.425 26.6277 346.832 27.9656 346.857 29.4864H341.684Z" fill="#EDFFFA"/>
</svg>
